<?xml version="1.0" encoding="UTF-8"?>
<svg version="1.1" xmlns="http://www.w3.org/2000/svg" width="52" height="51">
<path d="M0 0 C-0.99575106 5.48939688 -4.33766526 9.91147641 -8 14 C-10.43780112 15.27996772 -12.23459223 15.56621055 -15 16 C-17.4783263 18.4783263 -17.25048362 19.45767774 -17.5625 22.875 C-18.75699471 30.45351687 -23.14922376 35.28087493 -28 41 C-30.9640578 39.6955696 -31.91606405 39.12890164 -33.75 36.3125 C-36.56317747 28.8987671 -36.33271905 19.13705752 -33.25 11.875 C-32.53805818 10.56197235 -31.79186538 9.26643278 -31 8 C-30.443125 7.071875 -29.88625 6.14375 -29.3125 5.1875 C-21.745059 -1.97089014 -9.74082728 -3.24694243 0 0 Z " fill="#DF5F9E" transform="translate(35,1)"/>
<path d="M0 0 C-0.56371414 3.26954202 -1.49962266 4.82575883 -4 7 C-4.33 5.35 -4.66 3.7 -5 2 C-5.928125 2.185625 -6.85625 2.37125 -7.8125 2.5625 C-12.90820694 3.31741955 -17.91647238 2.59752133 -23 2 C-23 2.99 -23 3.98 -23 5 C-22.34 5.33 -21.68 5.66 -21 6 C-21.763125 6.061875 -22.52625 6.12375 -23.3125 6.1875 C-26.84268623 7.2547656 -27.30250226 8.8475042 -29 12 C-29.66 12 -30.32 12 -31 12 C-30.86722656 12.85722656 -30.73445313 13.71445313 -30.59765625 14.59765625 C-30.42105469 15.74105469 -30.24445312 16.88445313 -30.0625 18.0625 C-29.87558594 19.24585937 -29.68867188 20.42921875 -29.49609375 21.6484375 C-29.12274803 24.1707259 -28.8462533 26.65118172 -28.625 29.1875 C-28.30304787 32.13446011 -28.30304787 32.13446011 -25.9375 33.4375 C-25.298125 33.623125 -24.65875 33.80875 -24 34 C-25.47692308 38.67692308 -25.47692308 38.67692308 -28.125 40.3125 C-29.053125 40.6528125 -29.053125 40.6528125 -30 41 C-35.45541962 33.08084248 -35.70047656 26.3652757 -35 17 C-34.10384796 13.65684214 -32.82968248 10.92621693 -31 8 C-30.443125 7.071875 -29.88625 6.14375 -29.3125 5.1875 C-21.745059 -1.97089014 -9.74082728 -3.24694243 0 0 Z " fill="#E4729B" transform="translate(35,1)"/>
<path d="M0 0 C-0.5625 1.875 -0.5625 1.875 -2 4 C-4.31029085 4.74259349 -6.645752 5.411438 -9 6 C-11.50161908 8.50161908 -11.41630179 9.85354104 -11.875 13.3125 C-12.62896008 17.87216333 -13.46062587 20.79244219 -17 24 C-17.66 24 -18.32 24 -19 24 C-21.02578132 19.82182603 -21.53937404 16.62320608 -21 12 C-18.77558108 6.96404788 -16.54124993 2.03960224 -11.25 -0.125 C-7.32393167 -1.1820184 -3.73700486 -1.86850243 0 0 Z " fill="#BF66C2" transform="translate(29,11)"/>
<path d="M0 0 C2.475 0.99 2.475 0.99 5 2 C5.91657981 7.38490641 6.11138159 12.54230189 6 18 C0.79459302 17.03603575 -3.59913433 16.12319499 -8 13 C-6.40956621 7.91061189 -3.2553049 4.12543357 0 0 Z " fill="#E1619A" transform="translate(17,33)"/>
<path d="M0 0 C5.28 0 10.56 0 16 0 C17 3 17 3 16.00390625 5.48046875 C15.52824219 6.37378906 15.05257812 7.26710938 14.5625 8.1875 C14.08941406 9.08855469 13.61632813 9.98960938 13.12890625 10.91796875 C12.57009766 11.94857422 12.57009766 11.94857422 12 13 C8 13 8 13 5.60546875 11.171875 C4.80753906 10.37265625 4.00960937 9.5734375 3.1875 8.75 C2.37667969 7.96109375 1.56585938 7.1721875 0.73046875 6.359375 C0.15941406 5.58078125 -0.41164063 4.8021875 -1 4 C-0.67 2.68 -0.34 1.36 0 0 Z " fill="#CD659E" transform="translate(32,30)"/>
<path d="M0 0 C0.99 0.33 1.98 0.66 3 1 C3.33776684 2.7491497 3.67003671 4.49936145 4 6.25 C4.185625 7.22453125 4.37125 8.1990625 4.5625 9.203125 C5 12 5 12 5 16 C3.20866022 16.05391993 1.41686101 16.09275571 -0.375 16.125 C-1.37273438 16.14820312 -2.37046875 16.17140625 -3.3984375 16.1953125 C-6 16 -6 16 -8 14 C-7.68346697 10.26653346 -5.58368227 7.71563369 -3.4375 4.75 C-2.79683594 3.85796875 -2.15617187 2.9659375 -1.49609375 2.046875 C-0.75552734 1.03367187 -0.75552734 1.03367187 0 0 Z " fill="#DB6898" transform="translate(38,4)"/>
<path d="M0 0 C0.66 0 1.32 0 2 0 C2.14695312 1.48113281 2.14695312 1.48113281 2.296875 2.9921875 C2.44640625 4.27351563 2.5959375 5.55484375 2.75 6.875 C2.88921875 8.15117187 3.0284375 9.42734375 3.171875 10.7421875 C3.64400014 14.08900123 3.64400014 14.08900123 6.078125 15.4453125 C6.71234375 15.62835938 7.3465625 15.81140625 8 16 C6.52307692 20.67692308 6.52307692 20.67692308 3.875 22.3125 C2.946875 22.6528125 2.946875 22.6528125 2 23 C-2.26957201 16.80223418 -3.75740753 12.45654658 -3 5 C-1.625 1.9375 -1.625 1.9375 0 0 Z " fill="#E4619C" transform="translate(3,19)"/>
<path d="M0 0 C3.68069887 1.53643852 5.98775204 3.78150945 8.75 6.625 C9.54921875 7.44226562 10.3484375 8.25953125 11.171875 9.1015625 C12.07679687 10.04128906 12.07679687 10.04128906 13 11 C10.65408148 13.7710688 8.85223799 14.52059284 5.3125 15.1875 C4.50425781 15.34605469 3.69601563 15.50460938 2.86328125 15.66796875 C2.24839844 15.77753906 1.63351563 15.88710938 1 16 C0.63409254 14.27327966 0.28277805 12.54346345 -0.0625 10.8125 C-0.35833984 9.36810547 -0.35833984 9.36810547 -0.66015625 7.89453125 C-1.00423947 4.96389138 -0.74164697 2.83692932 0 0 Z " fill="#DD6A94" transform="translate(26,35)"/>
<path d="M0 0 C1.17046875 0.11085938 2.3409375 0.22171875 3.546875 0.3359375 C4.43890625 0.43132813 5.3309375 0.52671875 6.25 0.625 C5.92 1.615 5.59 2.605 5.25 3.625 C4.26 3.955 3.27 4.285 2.25 4.625 C2.25 3.965 2.25 3.305 2.25 2.625 C-5.22075272 3.686158 -5.22075272 3.686158 -11.625 7.27734375 C-15.25874712 12.392708 -15.96164644 16.48725335 -15.75 22.625 C-15.46479595 24.30057379 -15.15044304 25.97317245 -14.75 27.625 C-16.07 26.965 -17.39 26.305 -18.75 25.625 C-18.8309313 23.02021117 -18.89045434 20.41793347 -18.9375 17.8125 C-18.97520508 16.70551758 -18.97520508 16.70551758 -19.01367188 15.57617188 C-19.08749706 10.13771677 -19.08749706 10.13771677 -17.42578125 7.61328125 C-15.75 6.625 -15.75 6.625 -12.75 6.625 C-12.5025 5.84125 -12.255 5.0575 -12 4.25 C-10.75 1.625 -10.75 1.625 -9.09375 0.4375 C-5.89961161 -0.66980131 -3.3496706 -0.33496706 0 0 Z " fill="#D05EAF" transform="translate(24.75,7.375)"/>
<path d="M0 0 C2.475 0.99 2.475 0.99 5 2 C5 4.31 5 6.62 5 9 C2.36 9 -0.28 9 -3 9 C-3.75 7.3125 -3.75 7.3125 -4 5 C-2.0625 2.25 -2.0625 2.25 0 0 Z " fill="#C662AD" transform="translate(17,33)"/>
<path d="M0 0 C1.06546953 3.1964086 1.07427838 5.65747276 1 9 C1.99 9.33 2.98 9.66 4 10 C4.33 9.34 4.66 8.68 5 8 C4.4739075 11.78786597 3.61896089 14.17152224 1 17 C0.34 17 -0.32 17 -1 17 C-3.00441422 12.86589566 -3.40848636 9.57504719 -3 5 C-1.5 2.0625 -1.5 2.0625 0 0 Z " fill="#C65DBE" transform="translate(11,18)"/>
<path d="M0 0 C0.66 0 1.32 0 2 0 C2 0.66 2 1.32 2 2 C3.65 2.33 5.3 2.66 7 3 C7 4.65 7 6.3 7 8 C4.03 8 1.06 8 -2 8 C-3 4 -3 4 -1.6875 1.75 C-1.130625 1.1725 -0.57375 0.595 0 0 Z " fill="#C266B9" transform="translate(33,11)"/>
<path d="M0 0 C0.87527344 -0.00257812 1.75054687 -0.00515625 2.65234375 -0.0078125 C5.0625 0.125 5.0625 0.125 8.0625 1.125 C7.49878586 4.39454202 6.56287734 5.95075883 4.0625 8.125 C3.7325 6.475 3.4025 4.825 3.0625 3.125 C2.52625 3.310625 1.99 3.49625 1.4375 3.6875 C-1.55740614 4.23919324 -3.97495829 3.73097444 -6.9375 3.125 C-6.9375 2.465 -6.9375 1.805 -6.9375 1.125 C-4.46371876 -0.11189062 -2.75834683 -0.00810087 0 0 Z " fill="#E26791" transform="translate(26.9375,-0.125)"/>
<path d="M0 0 C2.97 0.33 5.94 0.66 9 1 C9 1.99 9 2.98 9 4 C8.34 4 7.68 4 7 4 C7.33 5.32 7.66 6.64 8 8 C2.375 6.125 2.375 6.125 0 5 C-0.33 4.01 -0.66 3.02 -1 2 C-0.67 1.34 -0.34 0.68 0 0 Z " fill="#C060B7" transform="translate(32,30)"/>
<path d="M0 0 C3.36720387 1.39332574 4.9859524 2.9789286 7 6 C6.01 6.33 5.02 6.66 4 7 C4 7.66 4 8.32 4 9 C3.01 9 2.02 9 1 9 C0.67 9.99 0.34 10.98 0 12 C-0.19401633 10.18818595 -0.38004375 8.37551468 -0.5625 6.5625 C-0.66691406 5.55316406 -0.77132813 4.54382812 -0.87890625 3.50390625 C-0.91886719 2.67761719 -0.95882813 1.85132813 -1 1 C-0.67 0.67 -0.34 0.34 0 0 Z " fill="#BE68AF" transform="translate(26,35)"/>
<path d="M0 0 C0.99 0 1.98 0 3 0 C3.50423019 5.29441695 2.18923033 7.81413519 -1 12 C-2.32 11.34 -3.64 10.68 -5 10 C-4.34 9.34 -3.68 8.68 -3 8 C-2.3574765 5.93125966 -2.3574765 5.93125966 -2 4 C-1.34 4 -0.68 4 0 4 C0 2.68 0 1.36 0 0 Z " fill="#DF6B92" transform="translate(44,32)"/>
<path d="M0 0 C0.99 0.33 1.98 0.66 3 1 C2.34 1.66 1.68 2.32 1 3 C0.18991376 5.31150263 -0.46077507 7.64562524 -1.12109375 10.00390625 C-1.41113281 10.66261719 -1.70117188 11.32132813 -2 12 C-2.99 12.33 -3.98 12.66 -5 13 C-5.875 10.4375 -5.875 10.4375 -6 7 C-4.29275002 4.3682085 -2.23621992 2.19084734 0 0 Z " fill="#BA5CD0" transform="translate(17,16)"/>
<path d="M0 0 C1.65 1.32 3.3 2.64 5 4 C6.65 3.34 8.3 2.68 10 2 C8.52307692 6.67692308 8.52307692 6.67692308 5.875 8.3125 C4.946875 8.6528125 4.946875 8.6528125 4 9 C0 3.375 0 3.375 0 0 Z " fill="#D26C95" transform="translate(1,33)"/>
<path d="M0 0 C0.33 0 0.66 0 1 0 C1.33 3.63 1.66 7.26 2 11 C-1.63 11 -5.26 11 -9 11 C-9 10.67 -9 10.34 -9 10 C-6.36 10 -3.72 10 -1 10 C-1 8.35 -1 6.7 -1 5 C-1.66 4.67 -2.32 4.34 -3 4 C-2.01 4 -1.02 4 0 4 C0 2.68 0 1.36 0 0 Z " fill="#D379B2" transform="translate(41,9)"/>
<path d="M0 0 C0.99 0.33 1.98 0.66 3 1 C2.34 2.65 1.68 4.3 1 6 C-0.98 6 -2.96 6 -5 6 C-5 5.01 -5 4.02 -5 3 C-4.01 3 -3.02 3 -2 3 C-2 2.34 -2 1.68 -2 1 C-1.34 0.67 -0.68 0.34 0 0 Z " fill="#DC609F" transform="translate(32,41)"/>
<path d="M0 0 C0.66 0.33 1.32 0.66 2 1 C2 2.98 2 4.96 2 7 C2.66 7 3.32 7 4 7 C4 7.66 4 8.32 4 9 C2.02 8.34 0.04 7.68 -2 7 C-2 3 -2 3 0 0 Z " fill="#D96D96" transform="translate(12,40)"/>
<path d="M0 0 C2.475 0.99 2.475 0.99 5 2 C5 4.31 5 6.62 5 9 C3.68 8.67 2.36 8.34 1 8 C1 7.34 1 6.68 1 6 C1.66 6 2.32 6 3 6 C2.24849977 2.72226496 2.24849977 2.72226496 -1 1 C-0.67 0.67 -0.34 0.34 0 0 Z " fill="#B667B1" transform="translate(17,33)"/>
<path d="M0 0 C0.66 0.33 1.32 0.66 2 1 C0 4 0 4 -2.125 4.6875 C-2.74375 4.790625 -3.3625 4.89375 -4 5 C-2.25 1.125 -2.25 1.125 0 0 Z M-7 6 C-6.01 6.495 -6.01 6.495 -5 7 C-5.33 9.97 -5.66 12.94 -6 16 C-6.33 16 -6.66 16 -7 16 C-7 12.7 -7 9.4 -7 6 Z " fill="#DE5CA6" transform="translate(12,10)"/>
<path d="M0 0 C3.96 0 7.92 0 12 0 C12.33 0.99 12.66 1.98 13 3 C12.01 4.485 12.01 4.485 11 6 C11 4.68 11 3.36 11 2 C9.35 2.33 7.7 2.66 6 3 C6 2.34 6 1.68 6 1 C4.02 1 2.04 1 0 1 C0 0.67 0 0.34 0 0 Z " fill="#C96D9E" transform="translate(36,30)"/>
<path d="M0 0 C1.65 0 3.3 0 5 0 C5 2.97 5 5.94 5 9 C3 8 3 8 1.9375 5.0625 C1.628125 4.051875 1.31875 3.04125 1 2 C0.67 1.34 0.34 0.68 0 0 Z " fill="#D475A5" transform="translate(18,42)"/>
<path d="M0 0 C0.8125 1.6875 0.8125 1.6875 1 4 C-1.4375 6.75 -1.4375 6.75 -4 9 C-3.67 7.02 -3.34 5.04 -3 3 C-2.01 2.67 -1.02 2.34 0 2 C0 1.34 0 0.68 0 0 Z " fill="#AE63B5" transform="translate(15,26)"/>
<path d="M0 0 C3.125 -0.1875 3.125 -0.1875 6 0 C5.67 0.99 5.34 1.98 5 3 C2.69 3 0.38 3 -2 3 C-1.34 2.01 -0.68 1.02 0 0 Z " fill="#C55AC6" transform="translate(21,10)"/>
<path d="M0 0 C0.33 0.66 0.66 1.32 1 2 C1.66 2 2.32 2 3 2 C3 2.99 3 3.98 3 5 C2.34 5 1.68 5 1 5 C1 5.66 1 6.32 1 7 C0.34 7 -0.32 7 -1 7 C-1.33 5.68 -1.66 4.36 -2 3 C-1.34 3 -0.68 3 0 3 C0 2.01 0 1.02 0 0 Z " fill="#DB5FA7" transform="translate(41,31)"/>
<path d="M0 0 C0.99 0.33 1.98 0.66 3 1 C2.34 1.66 1.68 2.32 1 3 C0.29289322 4.64991582 -0.37943989 6.31562256 -1 8 C-1.33 8 -1.66 8 -2 8 C-2.125 5.125 -2.125 5.125 -2 2 C-1.34 1.34 -0.68 0.68 0 0 Z " fill="#BA77D3" transform="translate(17,16)"/>
<path d="M0 0 C1.32 0.33 2.64 0.66 4 1 C4 1.99 4 2.98 4 4 C3.34 4 2.68 4 2 4 C1.67 4.66 1.34 5.32 1 6 C0.67 4.02 0.34 2.04 0 0 Z " fill="#C35DC2" transform="translate(16,35)"/>
<path d="M0 0 C0.99 0 1.98 0 3 0 C2.67 1.65 2.34 3.3 2 5 C0.68 5.33 -0.64 5.66 -2 6 C-2 5.34 -2 4.68 -2 4 C-1.34 4 -0.68 4 0 4 C0 2.68 0 1.36 0 0 Z " fill="#E75D97" transform="translate(44,32)"/>
<path d="M0 0 C0.33 1.32 0.66 2.64 1 4 C1.66 4 2.32 4 3 4 C2.67 4.99 2.34 5.98 2 7 C1.01 6.67 0.02 6.34 -1 6 C-1.33 5.01 -1.66 4.02 -2 3 C-1.34 2.01 -0.68 1.02 0 0 Z " fill="#CA67A2" transform="translate(36,7)"/>
<path d="M0 0 C2.5654594 2.5654594 2.54046087 4.47686668 3 8 C2.01 7.67 1.02 7.34 0 7 C0 4.69 0 2.38 0 0 Z " fill="#CB7A92" transform="translate(46,12)"/>
</svg>
